<svg id="Слой_3" data-name="Слой 3" xmlns="http://www.w3.org/2000/svg" viewBox="0 0 209.58 131.41"><defs><style>.cls-1{fill:none;stroke-width:10px;}.cls-1,.cls-2{stroke:#828383;stroke-miterlimit:10;}.cls-2{fill:#828383;stroke-width:5px;}</style></defs><path class="cls-1" d="M295.28,322.2c-11.81-3.66-20.64-12.61-20.64-12.61s-11.46-12.38-17.42-22-14.68-9.17-14.68-9.17H117.21A10.23,10.23,0,0,0,107,288.63v82.28a10.22,10.22,0,0,0,10.23,10.22h19.33a25.22,25.22,0,0,0,48.44,0H243.4a25.23,25.23,0,0,0,48.84-.45h6.94c5.62,0,7.38-8.6,7.38-8.6V336.31S307.09,325.87,295.28,322.2Z" transform="translate(-101.98 -273.4)"/><rect class="cls-2" x="65.81" y="19.22" width="34.62" height="26.14" rx="4.7"/><rect class="cls-2" x="19.95" y="19.22" width="34.62" height="26.14" rx="4.7"/><path class="cls-2" d="M254.81,318.76H218.12a4.69,4.69,0,0,1-4.7-4.7V297.32a4.7,4.7,0,0,1,4.7-4.7h25.22c2.6,0,16.17,21.44,16.17,21.44A4.69,4.69,0,0,1,254.81,318.76Z" transform="translate(-101.98 -273.4)"/><circle class="cls-2" cx="58.78" cy="102.23" r="9.48"/><circle class="cls-2" cx="164.87" cy="102.23" r="9.48"/></svg>