<svg width="151" height="63" viewBox="0 0 151 63" fill="none" xmlns="http://www.w3.org/2000/svg">
<rect width="151" height="63" rx="8" fill="white"/>
<path d="M31.472 43.192C29.7653 43.192 28.1867 42.9147 26.736 42.36C25.3067 41.784 24.0587 40.984 22.992 39.96C21.9467 38.936 21.1253 37.7307 20.528 36.344C19.952 34.9573 19.664 33.4427 19.664 31.8C19.664 30.1573 19.952 28.6427 20.528 27.256C21.1253 25.8693 21.9573 24.664 23.024 23.64C24.0907 22.616 25.3387 21.8267 26.768 21.272C28.2187 20.696 29.7973 20.408 31.504 20.408C33.2107 20.408 34.768 20.6747 36.176 21.208C37.6053 21.7413 38.8213 22.552 39.824 23.64L38.352 25.144C37.4133 24.2053 36.3787 23.5333 35.248 23.128C34.1173 22.7227 32.9013 22.52 31.6 22.52C30.2133 22.52 28.9333 22.7547 27.76 23.224C26.608 23.672 25.5947 24.3227 24.72 25.176C23.8667 26.008 23.1947 26.9893 22.704 28.12C22.2347 29.2293 22 30.456 22 31.8C22 33.1227 22.2347 34.3493 22.704 35.48C23.1947 36.6107 23.8667 37.6027 24.72 38.456C25.5947 39.288 26.608 39.9387 27.76 40.408C28.9333 40.856 30.2027 41.08 31.568 41.08C32.848 41.08 34.0533 40.888 35.184 40.504C36.336 40.12 37.392 39.4693 38.352 38.552L39.696 40.344C38.6293 41.2827 37.3813 41.9973 35.952 42.488C34.5227 42.9573 33.0293 43.192 31.472 43.192ZM37.424 40.056V31.8H39.696V40.344L37.424 40.056ZM52.766 43.16C51.1447 43.16 49.6833 42.7973 48.382 42.072C47.102 41.3253 46.0887 40.312 45.342 39.032C44.5953 37.7307 44.222 36.248 44.222 34.584C44.222 32.8987 44.5953 31.416 45.342 30.136C46.0887 28.856 47.102 27.8533 48.382 27.128C49.662 26.4027 51.1233 26.04 52.766 26.04C54.43 26.04 55.902 26.4027 57.182 27.128C58.4833 27.8533 59.4967 28.856 60.222 30.136C60.9687 31.416 61.342 32.8987 61.342 34.584C61.342 36.248 60.9687 37.7307 60.222 39.032C59.4967 40.312 58.4833 41.3253 57.182 42.072C55.8807 42.7973 54.4087 43.16 52.766 43.16ZM52.766 41.144C53.982 41.144 55.0593 40.8773 55.998 40.344C56.9367 39.7893 57.6727 39.0213 58.206 38.04C58.7607 37.0373 59.038 35.8853 59.038 34.584C59.038 33.2613 58.7607 32.1093 58.206 31.128C57.6727 30.1467 56.9367 29.3893 55.998 28.856C55.0593 28.3013 53.9927 28.024 52.798 28.024C51.6033 28.024 50.5367 28.3013 49.598 28.856C48.6593 29.3893 47.9127 30.1467 47.358 31.128C46.8033 32.1093 46.526 33.2613 46.526 34.584C46.526 35.8853 46.8033 37.0373 47.358 38.04C47.9127 39.0213 48.6593 39.7893 49.598 40.344C50.5367 40.8773 51.5927 41.144 52.766 41.144ZM66.4605 43V20.6H76.1245C78.6205 20.6 80.5512 21.1013 81.9165 22.104C83.3032 23.1067 83.9965 24.5253 83.9965 26.36C83.9965 27.576 83.7085 28.6 83.1325 29.432C82.5778 30.264 81.8098 30.8933 80.8285 31.32C79.8685 31.7467 78.8125 31.96 77.6605 31.96L78.2045 31.192C79.6338 31.192 80.8605 31.416 81.8845 31.864C82.9298 32.2907 83.7405 32.9413 84.3165 33.816C84.8925 34.6693 85.1805 35.736 85.1805 37.016C85.1805 38.9147 84.4765 40.3867 83.0685 41.432C81.6818 42.4773 79.5805 43 76.7645 43H66.4605ZM68.8285 41.048H76.7325C78.6952 41.048 80.1992 40.7173 81.2445 40.056C82.2898 39.3733 82.8125 38.296 82.8125 36.824C82.8125 35.3733 82.2898 34.3173 81.2445 33.656C80.1992 32.9733 78.6952 32.632 76.7325 32.632H68.5725V30.68H75.9645C77.7565 30.68 79.1432 30.3387 80.1245 29.656C81.1272 28.9733 81.6285 27.96 81.6285 26.616C81.6285 25.2507 81.1272 24.2373 80.1245 23.576C79.1432 22.8933 77.7565 22.552 75.9645 22.552H68.8285V41.048ZM97.0495 43.16C95.6202 43.16 94.3722 42.8933 93.3055 42.36C92.2388 41.8267 91.4068 41.0267 90.8095 39.96C90.2335 38.8933 89.9455 37.56 89.9455 35.96V26.2H92.2175V35.704C92.2175 37.496 92.6548 38.8507 93.5295 39.768C94.4255 40.664 95.6735 41.112 97.2735 41.112C98.4468 41.112 99.4602 40.8773 100.314 40.408C101.188 39.9173 101.85 39.2133 102.298 38.296C102.767 37.3787 103.002 36.28 103.002 35V26.2H105.274V43H103.097V38.392L103.45 39.224C102.916 40.4613 102.084 41.432 100.954 42.136C99.8442 42.8187 98.5428 43.16 97.0495 43.16ZM116.118 43.16C114.731 43.16 113.419 42.968 112.182 42.584C110.944 42.1787 109.974 41.6773 109.27 41.08L110.294 39.288C110.976 39.8 111.851 40.248 112.918 40.632C113.984 40.9947 115.104 41.176 116.278 41.176C117.878 41.176 119.03 40.9307 119.734 40.44C120.438 39.928 120.79 39.256 120.79 38.424C120.79 37.8053 120.587 37.3253 120.182 36.984C119.798 36.6213 119.286 36.3547 118.646 36.184C118.006 35.992 117.291 35.832 116.502 35.704C115.712 35.576 114.923 35.4267 114.134 35.256C113.366 35.0853 112.662 34.84 112.022 34.52C111.382 34.1787 110.859 33.72 110.454 33.144C110.07 32.568 109.878 31.8 109.878 30.84C109.878 29.9227 110.134 29.1013 110.646 28.376C111.158 27.6507 111.904 27.0853 112.886 26.68C113.888 26.2533 115.104 26.04 116.534 26.04C117.622 26.04 118.71 26.1893 119.798 26.488C120.886 26.7653 121.782 27.1387 122.486 27.608L121.494 29.432C120.747 28.92 119.947 28.5573 119.094 28.344C118.24 28.1093 117.387 27.992 116.534 27.992C115.019 27.992 113.899 28.2587 113.174 28.792C112.47 29.304 112.118 29.9653 112.118 30.776C112.118 31.416 112.31 31.9173 112.694 32.28C113.099 32.6427 113.622 32.9307 114.262 33.144C114.923 33.336 115.638 33.496 116.406 33.624C117.195 33.752 117.974 33.912 118.742 34.104C119.531 34.2747 120.246 34.52 120.886 34.84C121.547 35.1387 122.07 35.576 122.454 36.152C122.859 36.7067 123.062 37.4427 123.062 38.36C123.062 39.3413 122.784 40.1947 122.23 40.92C121.696 41.624 120.907 42.1787 119.862 42.584C118.838 42.968 117.59 43.16 116.118 43.16Z" fill="black"/>
</svg>
